{
	"asset":{
		"generator":"Khronos glTF Blender I/O v4.1.63",
		"version":"2.0"
	},
	"scene":0,
	"scenes":[
		{
			"name":"Scene",
			"nodes":[
				4,
				5,
				6,
				7
			]
		}
	],
	"nodes":[
		{
			"name":"Trigger",
			"translation":[
				9.300104123496997e-17,
				-0.3327450752258301,
				-0.4188394546508789
			]
		},
		{
			"name":"Bolt",
			"translation":[
				-2.604028889881363e-16,
				-2.517153739929199,
				1.1727503538131714
			]
		},
		{
			"name":"Magazine",
			"scale":[
				1,
				0.9999999403953552,
				1
			],
			"translation":[
				0.0010103462263941765,
				-2.9774551391601562,
				-2.765526294708252
			]
		},
		{
			"children":[
				0,
				1,
				2
			],
			"name":"Grip",
			"rotation":[
				-0.7071067690849304,
				0,
				0,
				0.7071067690849304
			]
		},
		{
			"mesh":0,
			"name":"SK_AssaultRifle",
			"skin":0
		},
		{
			"mesh":1,
			"name":"SM_AssaultRifle_Magazine",
			"translation":[
				0.0010103462263941765,
				-2.765526294708252,
				2.9774551391601562
			]
		},
		{
			"mesh":2,
			"name":"SM_AssaultRifle_Casing"
		},
		{
			"children":[
				3
			],
			"name":"SKEL_AssaultRifle"
		}
	],
	"materials":[
		{
			"doubleSided":true,
			"name":"M_AssaultRifle",
			"pbrMetallicRoughness":{
				"metallicFactor":0,
				"roughnessFactor":0.5
			}
		}
	],
	"meshes":[
		{
			"name":"AssaultRifle_Mesh",
			"primitives":[
				{
					"attributes":{
						"POSITION":0,
						"NORMAL":1,
						"TEXCOORD_0":2,
						"JOINTS_0":3,
						"WEIGHTS_0":4
					},
					"indices":5,
					"material":0
				}
			]
		},
		{
			"name":"AssaultRifle_Magazine_Mesh",
			"primitives":[
				{
					"attributes":{
						"POSITION":7,
						"NORMAL":8,
						"TEXCOORD_0":9
					},
					"indices":10,
					"material":0
				}
			]
		},
		{
			"name":"AssaultRifle_Casing_Mesh",
			"primitives":[
				{
					"attributes":{
						"POSITION":11,
						"NORMAL":12,
						"TEXCOORD_0":13
					},
					"indices":14,
					"material":0
				}
			]
		}
	],
	"skins":[
		{
			"inverseBindMatrices":6,
			"joints":[
				3,
				0,
				1,
				2
			],
			"name":"SKEL_AssaultRifle"
		}
	],
	"accessors":[
		{
			"bufferView":0,
			"componentType":5126,
			"count":14101,
			"max":[
				0.8865002393722534,
				3.631757974624634,
				17.102806091308594
			],
			"min":[
				-0.9624748229980469,
				-3.9022886753082275,
				-9.257844924926758
			],
			"type":"VEC3"
		},
		{
			"bufferView":1,
			"componentType":5126,
			"count":14101,
			"type":"VEC3"
		},
		{
			"bufferView":2,
			"componentType":5126,
			"count":14101,
			"type":"VEC2"
		},
		{
			"bufferView":3,
			"componentType":5121,
			"count":14101,
			"type":"VEC4"
		},
		{
			"bufferView":4,
			"componentType":5126,
			"count":14101,
			"type":"VEC4"
		},
		{
			"bufferView":5,
			"componentType":5123,
			"count":28911,
			"type":"SCALAR"
		},
		{
			"bufferView":6,
			"componentType":5126,
			"count":4,
			"type":"MAT4"
		},
		{
			"bufferView":7,
			"componentType":5126,
			"count":2150,
			"max":[
				0.40427088737487793,
				3.5719213485717773,
				1.5239708423614502
			],
			"min":[
				-0.4062875211238861,
				-2.5776515007019043,
				-1.307516098022461
			],
			"type":"VEC3"
		},
		{
			"bufferView":8,
			"componentType":5126,
			"count":2150,
			"type":"VEC3"
		},
		{
			"bufferView":9,
			"componentType":5126,
			"count":2150,
			"type":"VEC2"
		},
		{
			"bufferView":10,
			"componentType":5123,
			"count":4248,
			"type":"SCALAR"
		},
		{
			"bufferView":11,
			"componentType":5126,
			"count":278,
			"max":[
				0.13716071844100952,
				0.15837490558624268,
				0.7822983264923096
			],
			"min":[
				-0.13715559244155884,
				-0.15837836265563965,
				-0.45622801780700684
			],
			"type":"VEC3"
		},
		{
			"bufferView":12,
			"componentType":5126,
			"count":278,
			"type":"VEC3"
		},
		{
			"bufferView":13,
			"componentType":5126,
			"count":278,
			"type":"VEC2"
		},
		{
			"bufferView":14,
			"componentType":5123,
			"count":480,
			"type":"SCALAR"
		}
	],
	"bufferViews":[
		{
			"buffer":0,
			"byteLength":169212,
			"byteOffset":0,
			"target":34962
		},
		{
			"buffer":0,
			"byteLength":169212,
			"byteOffset":169212,
			"target":34962
		},
		{
			"buffer":0,
			"byteLength":112808,
			"byteOffset":338424,
			"target":34962
		},
		{
			"buffer":0,
			"byteLength":56404,
			"byteOffset":451232,
			"target":34962
		},
		{
			"buffer":0,
			"byteLength":225616,
			"byteOffset":507636,
			"target":34962
		},
		{
			"buffer":0,
			"byteLength":57822,
			"byteOffset":733252,
			"target":34963
		},
		{
			"buffer":0,
			"byteLength":256,
			"byteOffset":791076
		},
		{
			"buffer":0,
			"byteLength":25800,
			"byteOffset":791332,
			"target":34962
		},
		{
			"buffer":0,
			"byteLength":25800,
			"byteOffset":817132,
			"target":34962
		},
		{
			"buffer":0,
			"byteLength":17200,
			"byteOffset":842932,
			"target":34962
		},
		{
			"buffer":0,
			"byteLength":8496,
			"byteOffset":860132,
			"target":34963
		},
		{
			"buffer":0,
			"byteLength":3336,
			"byteOffset":868628,
			"target":34962
		},
		{
			"buffer":0,
			"byteLength":3336,
			"byteOffset":871964,
			"target":34962
		},
		{
			"buffer":0,
			"byteLength":2224,
			"byteOffset":875300,
			"target":34962
		},
		{
			"buffer":0,
			"byteLength":960,
			"byteOffset":877524,
			"target":34963
		}
	],
	"buffers":[
		{
			"byteLength":878484,
			"uri":"assault-rifle.bin"
		}
	]
}
