{
	"asset":{
		"generator":"Khronos glTF Blender I/O v4.1.63",
		"version":"2.0"
	},
	"scene":0,
	"scenes":[
		{
			"name":"Scene",
			"nodes":[
				4
			]
		}
	],
	"nodes":[
		{
			"name":"RightEar",
			"translation":[
				0.7728050947189331,
				-0.012554168701171875,
				-0.1922057569026947
			]
		},
		{
			"name":"LeftEar",
			"translation":[
				-0.8385358452796936,
				0.02060943841934204,
				-0.15135279297828674
			]
		},
		{
			"children":[
				0,
				1
			],
			"name":"Head"
		},
		{
			"mesh":0,
			"name":"Suzanne",
			"skin":0
		},
		{
			"children":[
				3,
				2
			],
			"name":"Armature"
		}
	],
	"materials":[
		{
			"doubleSided":true,
			"name":"Material.001",
			"pbrMetallicRoughness":{
				"baseColorFactor":[
					0.800000011920929,
					0.800000011920929,
					0.800000011920929,
					1
				],
				"metallicFactor":0,
				"roughnessFactor":0.5
			}
		}
	],
	"meshes":[
		{
			"name":"Suzanne",
			"primitives":[
				{
					"attributes":{
						"POSITION":0,
						"NORMAL":1,
						"TEXCOORD_0":2,
						"JOINTS_0":3,
						"WEIGHTS_0":4
					},
					"indices":5,
					"material":0
				}
			]
		}
	],
	"skins":[
		{
			"inverseBindMatrices":6,
			"joints":[
				2,
				0,
				1
			],
			"name":"Armature"
		}
	],
	"accessors":[
		{
			"bufferView":0,
			"componentType":5126,
			"count":1966,
			"max":[
				1.3671875,
				0.984375,
				0.8515625
			],
			"min":[
				-1.3671875,
				-0.984375,
				-0.8515625
			],
			"type":"VEC3"
		},
		{
			"bufferView":1,
			"componentType":5126,
			"count":1966,
			"type":"VEC3"
		},
		{
			"bufferView":2,
			"componentType":5126,
			"count":1966,
			"type":"VEC2"
		},
		{
			"bufferView":3,
			"componentType":5121,
			"count":1966,
			"type":"VEC4"
		},
		{
			"bufferView":4,
			"componentType":5126,
			"count":1966,
			"type":"VEC4"
		},
		{
			"bufferView":5,
			"componentType":5123,
			"count":2904,
			"type":"SCALAR"
		},
		{
			"bufferView":6,
			"componentType":5126,
			"count":3,
			"type":"MAT4"
		}
	],
	"bufferViews":[
		{
			"buffer":0,
			"byteLength":23592,
			"byteOffset":0,
			"target":34962
		},
		{
			"buffer":0,
			"byteLength":23592,
			"byteOffset":23592,
			"target":34962
		},
		{
			"buffer":0,
			"byteLength":15728,
			"byteOffset":47184,
			"target":34962
		},
		{
			"buffer":0,
			"byteLength":7864,
			"byteOffset":62912,
			"target":34962
		},
		{
			"buffer":0,
			"byteLength":31456,
			"byteOffset":70776,
			"target":34962
		},
		{
			"buffer":0,
			"byteLength":5808,
			"byteOffset":102232,
			"target":34963
		},
		{
			"buffer":0,
			"byteLength":192,
			"byteOffset":108040
		}
	],
	"buffers":[
		{
			"byteLength":108232,
			"uri":"blender-monkey-with-mat.bin"
		}
	]
}
