{
	"asset":{
		"generator":"Khronos glTF Blender I/O v4.2.57",
		"version":"2.0"
	},
	"scene":0,
	"scenes":[
		{
			"name":"Scene",
			"nodes":[
				5,
				6,
				7
			]
		}
	],
	"nodes":[
		{
			"name":"Trigger",
			"translation":[
				2.6022080337425625e-16,
				-0.7318868637084961,
				-1.1719303131103516
			]
		},
		{
			"name":"Bolt",
			"translation":[
				-7.319682859301319e-16,
				-6.909084796905518,
				3.296492099761963
			]
		},
		{
			"name":"Magazine",
			"translation":[
				0.0028682276606559753,
				-8.144996643066406,
				-7.817239284515381
			]
		},
		{
			"children":[
				0,
				1,
				2
			],
			"name":"Grip",
			"rotation":[
				-0.7071067690849304,
				0,
				0,
				0.7071067690849304
			],
			"scale":[
				1,
				0.9999999403953552,
				1
			]
		},
		{
			"mesh":0,
			"name":"SK_AssaultRifle",
			"skin":0
		},
		{
			"children":[
				4,
				3
			],
			"name":"SKEL_AssaultRifle_NODE"
		},
		{
			"mesh":1,
			"name":"SM_AssaultRifle_Magazine",
			"translation":[
				0.0028682276606559753,
				-7.817239284515381,
				8.14499568939209
			]
		},
		{
			"mesh":2,
			"name":"SM_AssaultRifle_Casing"
		}
	],
	"materials":[
		{
			"doubleSided":true,
			"name":"M_AssaultRifle",
			"pbrMetallicRoughness":{
				"metallicFactor":0,
				"roughnessFactor":0.5
			}
		}
	],
	"meshes":[
		{
			"name":"Cube.017",
			"primitives":[
				{
					"attributes":{
						"POSITION":0,
						"NORMAL":1,
						"TEXCOORD_0":2,
						"JOINTS_0":3,
						"WEIGHTS_0":4
					},
					"indices":5,
					"material":0
				}
			]
		},
		{
			"name":"Cube.001",
			"primitives":[
				{
					"attributes":{
						"POSITION":7,
						"NORMAL":8,
						"TEXCOORD_0":9
					},
					"indices":10,
					"material":0
				}
			]
		},
		{
			"name":"Cube.002",
			"primitives":[
				{
					"attributes":{
						"POSITION":11,
						"NORMAL":12,
						"TEXCOORD_0":13
					},
					"indices":14,
					"material":0
				}
			]
		}
	],
	"skins":[
		{
			"inverseBindMatrices":6,
			"joints":[
				3,
				0,
				1,
				2
			],
			"name":"SKEL_AssaultRifle_NODE"
		}
	],
	"accessors":[
		{
			"bufferView":0,
			"componentType":5126,
			"count":14104,
			"max":[
				2.5167505741119385,
				10.344488143920898,
				48.246490478515625
			],
			"min":[
				-2.732440233230591,
				-11.044471740722656,
				-26.5906982421875
			],
			"type":"VEC3"
		},
		{
			"bufferView":1,
			"componentType":5126,
			"count":14104,
			"type":"VEC3"
		},
		{
			"bufferView":2,
			"componentType":5126,
			"count":14104,
			"type":"VEC2"
		},
		{
			"bufferView":3,
			"componentType":5121,
			"count":14104,
			"type":"VEC4"
		},
		{
			"bufferView":4,
			"componentType":5126,
			"count":14104,
			"type":"VEC4"
		},
		{
			"bufferView":5,
			"componentType":5123,
			"count":28911,
			"type":"SCALAR"
		},
		{
			"bufferView":6,
			"componentType":5126,
			"count":4,
			"type":"MAT4"
		},
		{
			"bufferView":7,
			"componentType":5126,
			"count":2150,
			"max":[
				1.1477142572402954,
				10.140595436096191,
				4.326511383056641
			],
			"min":[
				-1.1534390449523926,
				-7.317877292633057,
				-3.712003231048584
			],
			"type":"VEC3"
		},
		{
			"bufferView":8,
			"componentType":5126,
			"count":2150,
			"type":"VEC3"
		},
		{
			"bufferView":9,
			"componentType":5126,
			"count":2150,
			"type":"VEC2"
		},
		{
			"bufferView":10,
			"componentType":5123,
			"count":4248,
			"type":"SCALAR"
		},
		{
			"bufferView":11,
			"componentType":5126,
			"count":278,
			"max":[
				0.3893958330154419,
				0.44962215423583984,
				2.220923900604248
			],
			"min":[
				-0.38938090205192566,
				-0.4496321678161621,
				-1.2952184677124023
			],
			"type":"VEC3"
		},
		{
			"bufferView":12,
			"componentType":5126,
			"count":278,
			"type":"VEC3"
		},
		{
			"bufferView":13,
			"componentType":5126,
			"count":278,
			"type":"VEC2"
		},
		{
			"bufferView":14,
			"componentType":5123,
			"count":480,
			"type":"SCALAR"
		}
	],
	"bufferViews":[
		{
			"buffer":0,
			"byteLength":169248,
			"byteOffset":0,
			"target":34962
		},
		{
			"buffer":0,
			"byteLength":169248,
			"byteOffset":169248,
			"target":34962
		},
		{
			"buffer":0,
			"byteLength":112832,
			"byteOffset":338496,
			"target":34962
		},
		{
			"buffer":0,
			"byteLength":56416,
			"byteOffset":451328,
			"target":34962
		},
		{
			"buffer":0,
			"byteLength":225664,
			"byteOffset":507744,
			"target":34962
		},
		{
			"buffer":0,
			"byteLength":57822,
			"byteOffset":733408,
			"target":34963
		},
		{
			"buffer":0,
			"byteLength":256,
			"byteOffset":791232
		},
		{
			"buffer":0,
			"byteLength":25800,
			"byteOffset":791488,
			"target":34962
		},
		{
			"buffer":0,
			"byteLength":25800,
			"byteOffset":817288,
			"target":34962
		},
		{
			"buffer":0,
			"byteLength":17200,
			"byteOffset":843088,
			"target":34962
		},
		{
			"buffer":0,
			"byteLength":8496,
			"byteOffset":860288,
			"target":34963
		},
		{
			"buffer":0,
			"byteLength":3336,
			"byteOffset":868784,
			"target":34962
		},
		{
			"buffer":0,
			"byteLength":3336,
			"byteOffset":872120,
			"target":34962
		},
		{
			"buffer":0,
			"byteLength":2224,
			"byteOffset":875456,
			"target":34962
		},
		{
			"buffer":0,
			"byteLength":960,
			"byteOffset":877680,
			"target":34963
		}
	],
	"buffers":[
		{
			"byteLength":878640,
			"uri":"RIG_AssaultRifle.bin"
		}
	]
}
